<svg width="1216" height="512" viewBox="0 0 1216 512" fill="none" xmlns="http://www.w3.org/2000/svg">
<g clip-path="url(#clip0_530_6927)">
<rect width="1216" height="512" fill="#050514"/>
<g opacity="0.04">
<path opacity="0.08" d="M371.038 157.659V164.197L376.23 161.248V154.71L371.038 157.659ZM237.094 158.068L234.659 159.453L237.094 160.839V164.197L239.69 162.72L242.285 164.197V157.659L237.094 154.71V158.068ZM577.146 272.061V268.707L574.551 270.18L571.955 268.702V272.061L569.52 273.446L571.955 274.831V278.19L574.551 276.712L577.146 278.19V274.831L579.581 273.446L577.146 272.061ZM376.23 386.058V382.695L371.038 385.644V392.182L373.634 390.705L376.23 392.182V388.824L378.665 387.438L376.23 386.058ZM1112.92 347.577V159.137H1107.73V268.702L1045.95 233.584V157.659L978.979 119.592V49.5708L1042.06 85.4299L1044.65 81.0031L978.979 43.6667L909.411 4.12207L842.439 42.1945L775.467 4.12207L708.495 42.1945L641.523 4.12207L574.551 42.1945L507.578 4.12207L440.606 42.1945L373.634 4.12207L306.662 42.1945L242.462 5.70158L239.69 4.12207L237.27 5.49711L172.717 42.1945L105.745 4.12207L38.7731 42.1945L-28.1991 4.12207L-97.7671 43.6667V216.245H-92.5754V122.766L-28.1991 86.1711L-25.6033 87.6484L36.1773 122.766V198.686L100.356 235.169L99.9929 235.373L41.3689 268.702L36.1773 271.652V277.781L43.8038 273.446L103.149 239.713L105.745 238.236L108.341 239.713L167.687 273.446L175.313 277.781V271.652L170.122 268.702L111.498 235.373L111.134 235.169L172.717 200.164L237.094 236.759V309.729L233.943 311.518L175.313 344.847V344.617L172.717 346.1L170.122 344.617V344.847L111.492 311.518L105.745 308.252L99.9981 311.518L38.4097 346.529L33.5815 349.274L41.3689 353.701L100.715 387.438L103.149 388.824V467.693L107.043 465.48L157.272 436.925L175.313 426.671V350.751L239.69 314.156L242.285 315.633L301.273 349.161L242.285 382.695L237.094 385.644V461.789L234.135 463.471L175.313 496.912L171.42 499.126L174.015 503.552L177.551 501.543L237.094 467.698L239.69 466.221L242.285 467.698L301.823 501.543L306.662 504.293L309.258 502.816L311.501 501.543L371.038 467.698L373.634 466.221L376.23 467.698L435.768 501.543L440.606 504.293L445.44 501.543L504.983 467.693L512.77 463.266L559.105 436.925L577.146 426.671V353.701L638.927 388.824V463.231L638.922 465.153L638.761 535.302L638.75 541.19L638.73 549.405L643.921 549.415L643.942 541.395L644.108 467.688L644.119 467.693L703.661 501.543L708.495 504.293L713.333 501.543L772.871 467.693L778.063 464.744V385.644L772.871 382.695L714.247 349.366L713.884 349.161L775.467 314.156L839.843 350.751V425.194H845.035V350.746L847.813 349.156L845.035 347.577V274.831L906.816 239.708V312.679L970.995 349.161L906.816 385.644V467.693L910.709 465.48L976.384 428.149L978.979 429.626L1042.06 465.48L1045.95 467.693L1110.33 504.288L1179.9 464.744V385.649L1112.92 347.577ZM44.3281 349.478L43.9647 349.274L105.745 314.156L167.329 349.161L166.965 349.366L108.341 382.695L105.548 384.284L103.149 382.92L44.3281 349.478ZM170.122 423.722L166.97 425.511L154.677 432.499L108.341 458.84V388.824L110.776 387.438L170.122 353.701V423.722ZM1045.95 239.488L1107.73 274.606V344.847L1045.95 309.729V239.488ZM978.979 125.491L1040.76 160.614V230.855L978.979 195.737V125.491ZM978.979 274.831L1040.76 239.708V309.729L978.979 344.847V274.831ZM976.384 200.164L1037.97 235.169L976.384 270.18L914.8 235.169L974.385 201.298L976.384 200.164ZM912.007 11.4983L973.788 46.6213V116.862L912.007 81.7443V11.4983ZM845.035 46.6213L906.816 11.4983V81.7443L845.035 116.862V46.6213ZM705.899 344.847L644.119 309.729L641.523 308.252L635.776 311.518L577.146 344.847V274.831L579.581 273.446L638.927 239.713L641.523 238.236L644.119 239.713L705.899 274.831V344.847ZM504.983 385.644V458.84L446.353 425.511L443.202 423.722V350.751L507.578 314.156L569.162 349.161L568.803 349.366L510.174 382.695L504.983 385.644ZM371.038 458.84L312.409 425.511L309.258 423.722V350.746L312.035 349.156L309.258 347.577V274.831L311.693 273.446L371.038 239.708V311.201H373.634L372.336 313.415L435.212 349.161L434.854 349.366L376.23 382.695L371.038 385.644V458.84ZM245.079 235.169L306.662 200.164L368.245 235.169L367.882 235.373L309.258 268.702L306.662 270.18L304.066 268.702L245.437 235.373L245.079 235.169ZM438.01 125.716V195.737L376.23 230.855V160.839L438.01 125.716ZM703.106 121.176L644.119 154.71L641.523 156.187L638.927 154.71L580.303 121.381L579.939 121.176L641.523 86.1711L644.119 87.6484L703.106 121.176ZM778.063 87.6484L837.05 121.176L778.063 154.71L775.467 156.187L772.871 154.71L714.247 121.381L713.884 121.176L775.467 86.1711L778.063 87.6484ZM772.871 230.855L714.242 197.526L711.091 195.737V125.716L770.436 159.453L772.871 160.834V230.855ZM635.77 235.373L577.25 268.646L577.146 268.707L574.551 270.18L571.955 268.702L546.547 254.256L512.967 235.169L571.955 201.636L573.933 200.511L577.146 198.686V125.716L636.492 159.453L638.927 160.839V233.579L635.77 235.373ZM571.955 344.847L513.326 311.518L510.174 309.729V239.708L569.52 273.446L571.955 274.831V344.847ZM376.23 236.759L440.606 200.164L502.189 235.169L501.826 235.373L443.202 268.702L438.01 271.652V344.847L379.381 311.518L376.23 309.729V236.759ZM502.548 159.453L504.983 160.834V230.855L446.353 197.531L443.202 195.737V125.716L502.548 159.453ZM571.955 125.716V195.737L510.174 230.855V160.834L571.955 125.716ZM443.202 274.831L504.983 239.708V309.729L443.202 344.847V274.831ZM644.119 230.855V160.839L705.899 125.716V195.737L644.119 230.855ZM569.162 121.176L568.798 121.381L510.174 154.71L507.578 156.187L504.983 154.71L446.359 121.381L445.995 121.176L507.578 86.1711L569.162 121.176ZM434.859 425.511L376.23 458.84V388.824L378.665 387.438L438.01 353.701V423.722L434.859 425.511ZM647.275 235.373L646.912 235.169L708.495 200.164L770.078 235.169L769.72 235.373L708.495 270.18L647.275 235.373ZM836.889 197.413L778.063 230.855V160.834L780.498 159.453L839.843 125.716V195.737L836.889 197.413ZM778.063 11.5035L839.843 46.6213V116.862L778.063 81.7443V11.5035ZM711.091 46.6213L772.871 11.5035V81.7443L711.091 116.862V46.6213ZM644.119 11.4983L703.661 45.3485L705.899 46.6213V116.862L647.073 83.4209L644.119 81.7443V11.4983ZM638.927 11.4983V81.7443L635.973 83.4209L577.146 116.862V46.6213L579.384 45.3485L638.927 11.4983ZM510.174 11.5035L569.717 45.3485L571.955 46.6213V116.862L513.128 83.4209L510.174 81.7443V11.5035ZM504.983 11.5035V81.7443L502.029 83.4209L443.202 116.862V46.6213L445.44 45.3485L504.983 11.5035ZM376.23 11.4983L435.773 45.3485L438.01 46.6213V116.862L379.184 83.4209L376.23 81.7443V11.4983ZM309.258 46.6213L371.038 11.4983V81.7443L309.258 116.862V46.6213ZM242.285 11.4983L242.452 11.5903L304.066 46.6213V116.862L242.291 81.7443H242.285V11.4983ZM239.69 86.1711L242.285 87.6484L304.066 122.766V125.731L306.662 124.249L309.258 125.731V122.766L373.634 86.1711L435.217 121.176L434.854 121.381L376.23 154.71L371.038 157.659V230.855L312.409 197.526L306.662 194.259L300.915 197.526L242.285 230.855V157.659L237.094 154.71L178.47 121.381L178.106 121.176L239.69 86.1711ZM237.094 11.4983V81.7443L234.14 83.4209L175.313 116.862V46.6213L177.551 45.3485L237.094 11.4983ZM108.341 11.5035L167.884 45.3485L170.122 46.6213V116.862L111.295 83.4209L108.341 81.7443V11.5035ZM166.965 121.381L108.341 154.71L105.745 156.187L103.149 154.71L44.162 121.176L103.149 87.6484L105.745 86.1711L167.329 121.176L166.965 121.381ZM103.149 230.855L41.3689 195.737V125.716L103.149 160.834V230.855ZM41.3689 46.6213L103.149 11.5035V81.7443L41.3689 116.862V46.6213ZM-92.5754 46.6213L-30.7949 11.4983V81.7443L-92.5754 116.862V46.6213ZM-25.6033 81.7443V11.4983L36.1773 46.6213V116.862L-25.6033 81.7443ZM170.122 195.737L166.97 197.526L108.341 230.855V160.834L110.776 159.453L170.122 125.716V195.737ZM175.313 125.716L234.659 159.453L237.094 160.839V230.855L178.465 197.526L175.313 195.737V125.716ZM245.437 311.518L242.285 309.729V239.708L301.631 273.446L304.066 274.831V344.847L245.437 311.518ZM242.285 388.824L244.72 387.438L304.066 353.701V423.722L300.915 425.511L242.285 458.84V388.824ZM309.258 496.912L306.662 498.389L304.066 496.912L245.245 463.471L244.881 463.266L306.662 428.149L368.442 463.266L368.079 463.471L309.258 496.912ZM443.202 496.912L440.606 498.389L438.01 496.912L379.189 463.471L378.826 463.266L440.606 428.149L502.387 463.266L502.023 463.471L443.202 496.912ZM571.955 423.722L556.51 432.499L510.174 458.84V388.824L571.955 353.701V423.722ZM580.298 349.366L579.939 349.161L641.523 314.156L703.106 349.161L702.743 349.366L644.119 382.695L641.523 384.172L638.927 382.695L580.298 349.366ZM644.119 388.824L646.553 387.438L705.899 353.701V423.722L702.748 425.511L644.119 458.84V388.824ZM711.091 496.912L708.495 498.389L705.899 496.912L647.078 463.471L646.714 463.266L708.495 428.149L770.275 463.266L769.912 463.471L711.091 496.912ZM770.436 387.438L772.871 388.824V458.84L714.242 425.511L711.091 423.722V353.701L770.436 387.438ZM772.871 309.729L769.72 311.518L711.091 344.847V274.831L713.526 273.446L772.871 239.708V309.729ZM839.843 344.847L781.214 311.518L778.063 309.729V239.708L837.409 273.446L839.843 274.831V344.847ZM842.439 270.18L781.214 235.373L780.856 235.169L842.439 200.164L842.798 200.368L852.272 205.751L904.023 235.169L842.439 270.18ZM906.816 230.625V230.855L845.035 195.737V122.766L909.411 86.1711L970.995 121.176L906.816 157.659V163.788L973.788 125.716V195.737L964.272 201.145L912.007 230.855V230.625L909.411 232.107L906.816 230.625ZM973.788 423.722L912.007 458.84V388.824L973.788 353.701V423.722ZM973.788 344.847L912.007 309.729V239.708L973.788 274.831V344.847ZM1040.76 458.84L978.979 423.722V353.701L1040.76 388.819V458.84ZM1043.36 384.172L981.773 349.161L1043.36 314.156L1104.94 349.161L1043.36 384.172ZM1045.95 388.819L1107.73 353.701V423.722L1045.95 458.84V388.819ZM1110.33 498.389L1048.55 463.266L1110.33 428.149L1172.11 463.266L1110.33 498.389ZM1174.7 458.84L1112.92 423.722V353.481L1174.7 388.599V458.84Z" fill="url(#paint0_linear_530_6927)"/>
<path d="M1306.24 390.562L1244.2 425.834L1241.6 424.356L1179.82 389.233V318.803L1174.49 315.779C1174.48 315.906 1174.46 316.031 1174.44 316.158L1174.63 316.268V386.284L1112.85 351.166V281.145L1113.51 281.523C1113.53 281.415 1113.54 281.307 1113.56 281.2C1113.56 281.196 1113.56 281.193 1113.56 281.19L1107.33 277.656C1106.92 277.799 1106.5 277.933 1106.07 278.046C1103.89 278.62 1101.75 279.239 1099.61 279.819L1043.28 311.841L978.906 275.241V204.755L973.794 201.853C973.771 202.073 973.744 202.292 973.714 202.51V272.291L914.368 238.554L911.934 237.168V167.152L912.558 167.507C912.563 167.374 912.577 167.241 912.586 167.108L907.14 164.016C907.018 164.411 906.885 164.799 906.742 165.181V237.168L904.307 238.554L844.961 272.291V200.798H842.366L843.663 198.585L780.787 162.838L781.141 162.639L839.77 129.305L842.874 127.541L844.961 126.355V119.817L842.366 121.295L839.77 119.817V123.176L837.48 124.479L837.335 124.561L777.989 158.299V90.7059L773.507 88.1622V88.5947C773.507 90.416 773.257 92.1584 772.798 93.8045V161.248L708.421 197.849L646.838 162.838L647.196 162.634L705.825 129.305L711.017 126.355V53.1599L711.818 53.6152C711.802 53.45 711.786 53.2856 711.771 53.1216L703.634 48.5031L703.23 48.7331L656.894 75.0741L638.853 85.3283V158.299L577.073 123.176V48.774L577.078 46.852L577.239 -23.302L577.249 -29.1907L577.27 -37.4053L572.078 -37.4155L572.057 -29.3952L571.891 44.3114L571.881 44.3064L512.338 10.4562L507.505 7.71117L502.671 10.4562L443.128 44.3064L437.937 47.2559V126.355L443.128 129.305L501.757 162.634L502.116 162.838L440.532 197.849L376.156 161.248V86.8056H370.964V161.253L368.187 162.843L370.964 164.423V237.168L309.184 272.291V199.321L245.005 162.838L309.184 126.355V44.3064L305.29 46.5198L239.616 83.8561L237.02 82.3788L173.942 46.5198L170.048 44.3064L105.672 7.71117L36.1035 47.2559V126.355L103.076 164.423V387.811H108.267V243.297L170.048 278.415V354.34L237.02 392.413V462.429L173.942 426.57L171.346 430.996L237.02 468.333L242.212 471.282V395.137L303.992 430.26V506.4L306.588 507.878L373.56 469.805L440.532 507.878L443.128 506.4V430.26L504.909 395.137V471.282L507.505 469.805L574.477 507.878L641.449 469.805L644.045 471.282V467.924L646.288 466.651L644.045 465.378V395.137L702.866 428.579L705.825 430.26V506.4L708.421 507.878L775.393 469.805L842.366 507.878L909.338 469.805L973.538 506.298L976.31 507.878L978.729 506.503L1043.28 469.805L1046.14 471.431V465.527L1045.88 465.378V395.137L1046.14 395.286V386.136L1045.88 386.284V316.268L1049.03 314.474L1107.66 281.145V351.166L1105.22 352.546L1068.93 373.177L1073.52 376.694L1107.66 357.29L1110.25 355.813L1112.85 357.29L1171.84 390.823L1112.85 424.356L1110.25 425.834L1107.92 424.505V506.549L1110.25 507.878L1177.23 469.805L1244.2 507.878L1313.77 468.333V394.836L1306.24 390.562ZM848.113 276.626L906.742 243.297L909.338 241.82L911.934 243.297L970.563 276.626L970.921 276.831L909.338 311.841L847.754 276.831L848.113 276.626ZM711.017 202.275L772.798 167.152V237.168L711.017 272.291V202.275ZM644.045 88.2829L659.49 79.5009L705.825 53.1599V123.176L644.045 158.299V88.2829ZM644.045 167.152L702.669 200.481L705.825 202.275V272.291L646.48 238.554L644.045 237.168V167.152ZM574.477 127.828L577.073 129.305L635.702 162.634L636.06 162.838L574.477 197.849L512.894 162.838L513.252 162.634L571.881 129.305L574.477 127.828ZM638.853 167.152V237.168L636.418 238.554L577.073 272.291L574.477 273.769L571.881 272.291L510.1 237.168V167.152L571.881 202.27L574.477 203.748L580.224 200.481L638.853 167.152ZM571.881 123.176L569.446 124.561L510.1 158.299V88.2829L513.257 86.4887L571.881 53.1599V123.176ZM446.082 48.5287L504.909 15.0875L507.505 13.6102L510.1 15.0875L568.927 48.5287L569.285 48.7331L507.505 83.8561L445.724 48.7331L446.082 48.5287ZM445.563 124.561L443.128 123.176V53.1599L501.752 86.4887L504.909 88.2829V158.299L445.563 124.561ZM443.128 202.275L446.285 200.481L504.909 167.152V237.168L502.474 238.554L443.128 272.291V202.275ZM376.156 167.152L434.78 200.481L437.937 202.275V272.291L378.591 238.554L376.156 237.168V167.152ZM242.212 88.2829L303.992 53.1599V123.176L242.212 158.299V88.2829ZM242.212 167.152L303.992 202.275V272.291L242.212 237.168V167.152ZM175.24 53.1599L237.02 88.2829V158.299L175.24 123.181V53.1599ZM103.076 158.524L41.2952 123.401V53.1599L103.076 88.2829V158.524ZM105.672 83.8561L43.891 48.7331L105.672 13.6153L167.452 48.7331L105.672 83.8561ZM170.048 53.1599V123.181L108.267 158.299V88.2829L170.048 53.1599ZM170.048 272.516L108.267 237.393V167.152L170.048 202.275V272.516ZM111.06 162.838L172.644 127.828L234.227 162.838L172.644 197.849L111.06 162.838ZM237.02 167.152V237.168L175.24 272.291V202.275L237.02 167.152ZM237.02 386.509L175.24 351.386V281.145L237.02 316.268V386.509ZM241.615 310.701L239.616 311.841L178.033 276.831L239.616 241.82L301.199 276.831L241.615 310.701ZM370.964 465.378L309.184 500.501V430.26L370.964 395.137V465.378ZM370.964 389.233L306.588 425.834L303.992 424.356L245.005 390.823L309.184 354.34V348.211L242.212 386.284V316.268L251.728 310.855L303.992 281.145V281.375L306.588 279.898L309.184 281.375V281.145L370.964 316.268V389.233ZM373.197 311.637L363.727 306.249L311.977 276.831L373.56 241.82L434.785 276.626L435.143 276.831L373.56 311.841L373.197 311.637ZM437.937 281.145V351.166L435.502 352.546L376.156 386.284V316.268L379.115 314.586L437.937 281.145ZM437.937 500.501L376.156 465.378V395.137L437.937 430.26V500.501ZM440.532 425.834L437.937 424.356L378.949 390.823L437.937 357.29L440.532 355.813L443.128 357.29L501.757 390.619L502.116 390.823L440.532 425.834ZM504.909 386.284L445.563 352.546L443.128 351.166V281.145L501.752 314.474L504.909 316.268V386.284ZM445.921 276.831L446.28 276.626L507.505 241.82L568.73 276.626L569.088 276.831L507.505 311.841L445.921 276.831ZM571.881 281.145V351.161L510.1 386.284V316.268L571.881 281.145ZM571.881 500.501L512.338 466.651L510.1 465.378V395.137L568.922 428.579L571.881 430.26V500.501ZM571.881 424.356L512.894 390.823L571.881 357.29L574.477 355.813L577.073 357.29L635.702 390.619L636.06 390.823L574.477 425.834L571.881 424.356ZM638.853 465.378L636.61 466.651L577.073 500.501V430.26L580.032 428.579L638.853 395.137V465.378ZM642.067 311.488L638.853 313.313V386.284L579.507 352.546L577.073 351.161V278.42L580.224 276.626L638.749 243.359L638.853 243.297L641.449 241.82L644.045 243.297L669.453 257.743L703.032 276.831L644.045 310.364L642.067 311.488ZM644.045 316.268L705.825 281.145V351.166L644.045 386.284V316.268ZM646.838 390.823L647.196 390.619L705.825 357.29L708.421 355.813L711.017 357.29L769.646 390.619L770.004 390.823L708.421 425.834L646.838 390.823ZM772.798 465.378L770.555 466.651L711.017 500.501V430.26L713.976 428.579L772.798 395.137V465.378ZM772.798 386.284L713.452 352.546L711.017 351.166V281.145L769.641 314.474L772.798 316.268V386.284ZM713.81 276.831L714.168 276.626L772.798 243.297L777.989 240.348V167.152L836.613 200.481L839.77 202.275V275.241L775.393 311.841L713.81 276.831ZM839.77 281.145V351.161L777.989 386.284V316.268L839.77 281.145ZM839.77 500.501L780.227 466.651L777.989 465.378V395.137L836.81 428.579L839.77 430.26V500.501ZM906.742 465.378L844.961 500.501V430.26L906.742 395.137V465.378ZM973.714 500.501L973.548 500.409L911.934 465.378V395.137L973.709 430.26H973.714V500.501ZM976.31 425.834L973.714 424.356L911.934 389.233V386.268L909.338 387.756L906.742 386.268V389.233L842.366 425.834L780.782 390.823L781.141 390.619L839.77 357.29L844.961 354.34V281.145L903.591 314.474L909.338 317.74L915.085 314.474L973.714 281.145V354.34L978.906 357.29L1037.53 390.619L1037.89 390.823L976.31 425.834ZM1040.69 465.378L1038.45 466.651L978.906 500.501V430.26L981.865 428.579L1040.69 395.137V465.378ZM1040.69 386.284L981.341 352.546L978.906 351.161V281.145L1037.53 314.474L1040.69 316.268V386.284ZM1174.63 465.378L1112.85 500.501V430.26L1174.63 395.137V465.378ZM1241.6 500.501L1179.82 465.378V395.137L1241.6 430.26V500.501ZM1308.57 465.378L1246.79 500.501V430.26L1308.57 395.137V465.378Z" fill="url(#paint1_linear_530_6927)"/>
</g>
</g>
<defs>
<linearGradient id="paint0_linear_530_6927" x1="-101.562" y1="280.773" x2="603.252" y2="273.662" gradientUnits="userSpaceOnUse">
<stop stop-color="#00C5E9"/>
<stop offset="0.0746023" stop-color="#00BCEA"/>
<stop offset="0.196812" stop-color="#00A3EE"/>
<stop offset="0.351445" stop-color="#007BF5"/>
<stop offset="0.530858" stop-color="#0044FE"/>
<stop offset="0.558659" stop-color="#003BFF"/>
<stop offset="0.60137" stop-color="#083CFF"/>
<stop offset="0.668488" stop-color="#1F3FFF"/>
<stop offset="0.751616" stop-color="#4343FF"/>
<stop offset="0.847516" stop-color="#7649FF"/>
<stop offset="0.952894" stop-color="#B750FF"/>
<stop offset="1" stop-color="#D654FF"/>
</linearGradient>
<linearGradient id="paint1_linear_530_6927" x1="31.8903" y1="243.802" x2="736.704" y2="236.691" gradientUnits="userSpaceOnUse">
<stop stop-color="#00C5E9"/>
<stop offset="0.0746023" stop-color="#00BCEA"/>
<stop offset="0.196812" stop-color="#00A3EE"/>
<stop offset="0.351445" stop-color="#007BF5"/>
<stop offset="0.530858" stop-color="#0044FE"/>
<stop offset="0.558659" stop-color="#003BFF"/>
<stop offset="0.60137" stop-color="#083CFF"/>
<stop offset="0.668488" stop-color="#1F3FFF"/>
<stop offset="0.751616" stop-color="#4343FF"/>
<stop offset="0.847516" stop-color="#7649FF"/>
<stop offset="0.952894" stop-color="#B750FF"/>
<stop offset="1" stop-color="#D654FF"/>
</linearGradient>
<clipPath id="clip0_530_6927">
<rect width="1216" height="512" fill="white"/>
</clipPath>
</defs>
</svg>
