<svg width="1800" height="320" viewBox="0 0 1800 320" fill="none" xmlns="http://www.w3.org/2000/svg">
<g clip-path="url(#clip0_130_20779)">
<path d="M1800 1089H-711V0H1800V1089Z" fill="url(#paint0_linear_130_20779)"/>
<path opacity="0.49" d="M1114.62 424.18C1166.98 424.18 1209.42 381.735 1209.42 329.376C1209.42 277.017 1166.98 234.572 1114.62 234.572C1062.26 234.572 1019.81 277.017 1019.81 329.376C1019.81 381.735 1062.26 424.18 1114.62 424.18Z" fill="url(#paint1_radial_130_20779)"/>
<path d="M1155.42 249.317H1032.56V372.178H1155.42V249.317Z" fill="url(#paint2_linear_130_20779)"/>
<path d="M1155.42 372.178H1032.56L1036.06 251.679H1152.7L1155.42 372.178Z" fill="url(#paint3_linear_130_20779)"/>
<path opacity="0.49" d="M1445.08 311.936C1476.43 311.936 1501.85 286.52 1501.85 255.167C1501.85 223.815 1476.43 198.398 1445.08 198.398C1413.73 198.398 1388.31 223.815 1388.31 255.167C1388.31 286.52 1413.73 311.936 1445.08 311.936Z" fill="url(#paint4_radial_130_20779)"/>
<path d="M1469.52 207.228H1395.95V280.797H1469.52V207.228Z" fill="url(#paint5_linear_130_20779)"/>
<path d="M1469.52 280.797H1395.95L1398.04 208.642H1467.88L1469.52 280.797Z" fill="url(#paint6_linear_130_20779)"/>
<path opacity="0.49" d="M1281.19 258.317C1295.51 258.317 1307.12 246.709 1307.12 232.39C1307.12 218.07 1295.51 206.462 1281.19 206.462C1266.87 206.462 1255.26 218.07 1255.26 232.39C1255.26 246.709 1266.87 258.317 1281.19 258.317Z" fill="url(#paint7_radial_130_20779)"/>
<path d="M1292.35 210.495H1258.75V244.095H1292.35V210.495Z" fill="url(#paint8_linear_130_20779)"/>
<path d="M1292.35 244.095H1258.75L1259.71 211.141H1291.61L1292.35 244.095Z" fill="url(#paint9_linear_130_20779)"/>
<path opacity="0.49" d="M1099.25 146.598C1151.61 146.598 1194.05 104.152 1194.05 51.7937C1194.05 -0.565102 1151.61 -43.0103 1099.25 -43.0103C1046.89 -43.0103 1004.44 -0.565102 1004.44 51.7937C1004.44 104.152 1046.89 146.598 1099.25 146.598Z" fill="url(#paint10_radial_130_20779)"/>
<path d="M1140.05 -28.2656H1017.19V94.5955H1140.05V-28.2656Z" fill="url(#paint11_linear_130_20779)"/>
<path d="M1140.05 94.5954H1017.19L1020.69 -25.9033H1137.33L1140.05 94.5954Z" fill="url(#paint12_linear_130_20779)"/>
<path opacity="0.49" d="M1220.76 310.747C1298.3 310.747 1361.16 247.891 1361.16 170.353C1361.16 92.8152 1298.3 29.9585 1220.76 29.9585C1143.22 29.9585 1080.37 92.8152 1080.37 170.353C1080.37 247.891 1143.22 310.747 1220.76 310.747Z" fill="url(#paint13_radial_130_20779)"/>
<path d="M1281.19 51.7935H1099.25V233.737H1281.19V51.7935Z" fill="url(#paint14_linear_130_20779)"/>
<path d="M1281.19 233.737H1099.25L1104.43 55.292H1277.16L1281.19 233.737Z" fill="url(#paint15_linear_130_20779)"/>
<path opacity="0.49" d="M1448.88 200.545C1493.75 200.545 1530.13 164.168 1530.13 119.295C1530.13 74.4225 1493.75 38.0459 1448.88 38.0459C1404.01 38.0459 1367.63 74.4225 1367.63 119.295C1367.63 164.168 1404.01 200.545 1448.88 200.545Z" fill="url(#paint16_radial_130_20779)"/>
<path d="M1483.85 50.6821H1378.56V155.977H1483.85V50.6821Z" fill="url(#paint17_linear_130_20779)"/>
<path d="M1483.85 155.978H1378.56L1381.55 52.707H1481.52L1483.85 155.978Z" fill="url(#paint18_linear_130_20779)"/>
<path opacity="0.49" d="M1341.62 72.7532C1374.99 72.7532 1402.05 45.6982 1402.05 12.3241C1402.05 -21.0499 1374.99 -48.105 1341.62 -48.105C1308.25 -48.105 1281.19 -21.0499 1281.19 12.3241C1281.19 45.6982 1308.25 72.7532 1341.62 72.7532Z" fill="url(#paint19_radial_130_20779)"/>
<path d="M1367.63 -38.7065H1289.32V39.6066H1367.63V-38.7065Z" fill="url(#paint20_linear_130_20779)"/>
<path d="M1367.63 39.6066H1289.32L1291.55 -37.2007H1365.89L1367.63 39.6066Z" fill="url(#paint21_linear_130_20779)"/>
<path opacity="0.49" d="M1304.69 556.437C1382.22 556.437 1445.08 493.581 1445.08 416.043C1445.08 338.505 1382.22 275.648 1304.69 275.648C1227.15 275.648 1164.29 338.505 1164.29 416.043C1164.29 493.581 1227.15 556.437 1304.69 556.437Z" fill="url(#paint22_radial_130_20779)"/>
<path d="M1365.12 297.483H1183.17V479.427H1365.12V297.483Z" fill="url(#paint23_linear_130_20779)"/>
<path d="M1365.12 479.427H1183.17L1188.35 300.982H1361.08L1365.12 479.427Z" fill="url(#paint24_linear_130_20779)"/>
<path opacity="0.49" d="M989.24 170.353C1011.35 170.353 1029.27 152.432 1029.27 130.324C1029.27 108.217 1011.35 90.2954 989.24 90.2954C967.133 90.2954 949.211 108.217 949.211 130.324C949.211 152.432 967.133 170.353 989.24 170.353Z" fill="url(#paint25_radial_130_20779)"/>
<path d="M1006.47 96.521H954.594V148.396H1006.47V96.521Z" fill="url(#paint26_linear_130_20779)"/>
<path d="M1006.47 148.396H954.594L956.071 97.5186H1005.32L1006.47 148.396Z" fill="url(#paint27_linear_130_20779)"/>
</g>
<defs>
<linearGradient id="paint0_linear_130_20779" x1="-522.69" y1="1033.89" x2="1024.23" y2="-642.346" gradientUnits="userSpaceOnUse">
<stop stop-color="white"/>
<stop offset="0.582482" stop-color="#E4E7E7"/>
<stop offset="1" stop-color="#CED3D4"/>
</linearGradient>
<radialGradient id="paint1_radial_130_20779" cx="0" cy="0" r="1" gradientUnits="userSpaceOnUse" gradientTransform="translate(1114.62 329.376) scale(94.804 94.804)">
<stop/>
<stop offset="1" stop-color="white" stop-opacity="0"/>
</radialGradient>
<linearGradient id="paint2_linear_130_20779" x1="1141.73" y1="247.768" x2="1012.51" y2="418.237" gradientUnits="userSpaceOnUse">
<stop stop-color="white"/>
<stop offset="1" stop-color="#DCDDDE"/>
</linearGradient>
<linearGradient id="paint3_linear_130_20779" x1="1093.99" y1="376.609" x2="1093.99" y2="178.806" gradientUnits="userSpaceOnUse">
<stop stop-color="white"/>
<stop offset="1" stop-color="#DCDDDE"/>
</linearGradient>
<radialGradient id="paint4_radial_130_20779" cx="0" cy="0" r="1" gradientUnits="userSpaceOnUse" gradientTransform="translate(1445.08 255.167) scale(56.7688 56.7688)">
<stop/>
<stop offset="1" stop-color="white" stop-opacity="0"/>
</radialGradient>
<linearGradient id="paint5_linear_130_20779" x1="1461.32" y1="206.3" x2="1383.94" y2="308.377" gradientUnits="userSpaceOnUse">
<stop stop-color="white"/>
<stop offset="1" stop-color="#DCDDDE"/>
</linearGradient>
<linearGradient id="paint6_linear_130_20779" x1="1432.73" y1="283.45" x2="1432.73" y2="165.005" gradientUnits="userSpaceOnUse">
<stop stop-color="white"/>
<stop offset="1" stop-color="#DCDDDE"/>
</linearGradient>
<radialGradient id="paint7_radial_130_20779" cx="0" cy="0" r="1" gradientUnits="userSpaceOnUse" gradientTransform="translate(1281.19 232.39) scale(25.9276 25.9276)">
<stop/>
<stop offset="1" stop-color="white" stop-opacity="0"/>
</radialGradient>
<linearGradient id="paint8_linear_130_20779" x1="1288.61" y1="210.071" x2="1253.27" y2="256.692" gradientUnits="userSpaceOnUse">
<stop stop-color="white"/>
<stop offset="1" stop-color="#DCDDDE"/>
</linearGradient>
<linearGradient id="paint9_linear_130_20779" x1="1275.55" y1="245.307" x2="1275.55" y2="191.211" gradientUnits="userSpaceOnUse">
<stop stop-color="white"/>
<stop offset="1" stop-color="#DCDDDE"/>
</linearGradient>
<radialGradient id="paint10_radial_130_20779" cx="0" cy="0" r="1" gradientUnits="userSpaceOnUse" gradientTransform="translate(1099.25 51.7936) scale(94.804 94.8039)">
<stop/>
<stop offset="1" stop-color="white" stop-opacity="0"/>
</radialGradient>
<linearGradient id="paint11_linear_130_20779" x1="1126.37" y1="-29.8146" x2="997.139" y2="140.655" gradientUnits="userSpaceOnUse">
<stop stop-color="white"/>
<stop offset="1" stop-color="#DCDDDE"/>
</linearGradient>
<linearGradient id="paint12_linear_130_20779" x1="1078.62" y1="99.0266" x2="1078.62" y2="-98.7769" gradientUnits="userSpaceOnUse">
<stop stop-color="white"/>
<stop offset="1" stop-color="#DCDDDE"/>
</linearGradient>
<radialGradient id="paint13_radial_130_20779" cx="0" cy="0" r="1" gradientUnits="userSpaceOnUse" gradientTransform="translate(1220.76 170.353) scale(140.394)">
<stop/>
<stop offset="1" stop-color="white" stop-opacity="0"/>
</radialGradient>
<linearGradient id="paint14_linear_130_20779" x1="1260.92" y1="49.4996" x2="1069.55" y2="301.946" gradientUnits="userSpaceOnUse">
<stop stop-color="white"/>
<stop offset="1" stop-color="#DCDDDE"/>
</linearGradient>
<linearGradient id="paint15_linear_130_20779" x1="1190.22" y1="240.3" x2="1190.22" y2="-52.6258" gradientUnits="userSpaceOnUse">
<stop stop-color="white"/>
<stop offset="1" stop-color="#DCDDDE"/>
</linearGradient>
<radialGradient id="paint16_radial_130_20779" cx="0" cy="0" r="1" gradientUnits="userSpaceOnUse" gradientTransform="translate(1448.88 119.295) scale(81.2493 81.2494)">
<stop/>
<stop offset="1" stop-color="white" stop-opacity="0"/>
</radialGradient>
<linearGradient id="paint17_linear_130_20779" x1="1472.12" y1="49.3547" x2="1361.37" y2="195.451" gradientUnits="userSpaceOnUse">
<stop stop-color="white"/>
<stop offset="1" stop-color="#DCDDDE"/>
</linearGradient>
<linearGradient id="paint18_linear_130_20779" x1="1431.2" y1="159.775" x2="1431.2" y2="-9.74744" gradientUnits="userSpaceOnUse">
<stop stop-color="white"/>
<stop offset="1" stop-color="#DCDDDE"/>
</linearGradient>
<radialGradient id="paint19_radial_130_20779" cx="0" cy="0" r="1" gradientUnits="userSpaceOnUse" gradientTransform="translate(1341.62 12.3242) scale(60.4292 60.4291)">
<stop/>
<stop offset="1" stop-color="white" stop-opacity="0"/>
</radialGradient>
<linearGradient id="paint20_linear_130_20779" x1="1358.91" y1="-39.6938" x2="1276.54" y2="68.9651" gradientUnits="userSpaceOnUse">
<stop stop-color="white"/>
<stop offset="1" stop-color="#DCDDDE"/>
</linearGradient>
<linearGradient id="paint21_linear_130_20779" x1="1328.47" y1="42.4311" x2="1328.47" y2="-83.6511" gradientUnits="userSpaceOnUse">
<stop stop-color="white"/>
<stop offset="1" stop-color="#DCDDDE"/>
</linearGradient>
<radialGradient id="paint22_radial_130_20779" cx="0" cy="0" r="1" gradientUnits="userSpaceOnUse" gradientTransform="translate(1304.69 416.043) scale(140.394 140.394)">
<stop/>
<stop offset="1" stop-color="white" stop-opacity="0"/>
</radialGradient>
<linearGradient id="paint23_linear_130_20779" x1="1344.85" y1="295.19" x2="1153.47" y2="547.636" gradientUnits="userSpaceOnUse">
<stop stop-color="white"/>
<stop offset="1" stop-color="#DCDDDE"/>
</linearGradient>
<linearGradient id="paint24_linear_130_20779" x1="1274.14" y1="485.99" x2="1274.14" y2="193.064" gradientUnits="userSpaceOnUse">
<stop stop-color="white"/>
<stop offset="1" stop-color="#DCDDDE"/>
</linearGradient>
<radialGradient id="paint25_radial_130_20779" cx="0" cy="0" r="1" gradientUnits="userSpaceOnUse" gradientTransform="translate(989.24 130.324) scale(40.0288 40.0288)">
<stop/>
<stop offset="1" stop-color="white" stop-opacity="0"/>
</radialGradient>
<linearGradient id="paint26_linear_130_20779" x1="1000.69" y1="95.867" x2="946.127" y2="167.844" gradientUnits="userSpaceOnUse">
<stop stop-color="white"/>
<stop offset="1" stop-color="#DCDDDE"/>
</linearGradient>
<linearGradient id="paint27_linear_130_20779" x1="980.532" y1="150.267" x2="980.532" y2="66.7493" gradientUnits="userSpaceOnUse">
<stop stop-color="white"/>
<stop offset="1" stop-color="#DCDDDE"/>
</linearGradient>
<clipPath id="clip0_130_20779">
<rect width="1800" height="320" fill="white"/>
</clipPath>
</defs>
</svg>
