<svg width="1800" height="320" viewBox="0 0 1800 320" fill="none" xmlns="http://www.w3.org/2000/svg">
<g clip-path="url(#clip0_130_19925)">
<path d="M1800 321.47H0V0H1800V321.47Z" fill="#050514"/>
<path d="M1217.65 -349.915L304.802 177.12M1265.07 -322.537L352.221 204.498M1312.49 -295.16L399.64 231.875M1359.91 -267.782L447.06 259.253M1407.33 -240.405L494.479 286.63M1454.75 -213.027L541.898 314.008M1502.17 -185.65L589.317 341.385M1549.59 -158.272L636.736 368.763M1597.01 -130.895L684.156 396.14M1644.43 -103.517L731.575 423.518M1691.85 -76.1398L778.994 450.895M1739.26 -48.7623L826.413 478.273M1786.68 -21.3848L873.832 505.65M1834.1 5.99268L921.251 533.028M1881.52 33.3701L968.671 560.405M1928.94 60.7476L1016.09 587.782M1976.36 88.1251L1063.51 615.16M2023.78 115.503L1110.93 642.537M2071.2 142.88L1158.35 669.915M2071.4 180.313L1152.82 -350.032M2024.28 207.52L1105.69 -322.825M1977.16 234.727L1058.57 -295.619M1930.03 261.933L1011.45 -268.412M1882.91 289.14L964.324 -241.205M1835.79 316.346L917.201 -213.999M1788.66 343.553L870.078 -186.792M1741.54 370.76L822.954 -159.586M1694.42 397.966L766.089 -138.071M1647.29 425.173L728.708 -105.172M1600.17 452.379L681.585 -77.9657M1553.05 479.586L634.462 -50.7592M1505.92 506.792L587.338 -23.5526M1458.8 533.999L540.215 3.65396M1411.68 561.206L493.092 30.8606M1364.55 588.412L445.969 58.0671M1317.43 615.619L398.846 85.2737M1270.31 642.825L351.722 112.48M1223.18 670.032L304.599 139.687" stroke="url(#paint0_linear_130_19925)" stroke-miterlimit="10"/>
<path d="M1230.46 241.512L1183.39 268.683V214.34L1230.46 187.168V241.512Z" fill="url(#paint1_linear_130_19925)"/>
<path d="M1183.39 268.684L1136.04 241.341V186.998L1183.39 214.34V268.684Z" fill="url(#paint2_linear_130_19925)"/>
<path d="M1183.4 214.34L1136.04 186.998L1183.1 159.826L1230.46 187.169L1183.4 214.34Z" fill="url(#paint3_linear_130_19925)"/>
<path d="M1183.1 160.798L1228.78 187.169L1183.4 213.369L1137.72 186.998L1183.1 160.798ZM1183.1 159.826L1136.04 186.998L1183.4 214.34L1230.46 187.169L1183.1 159.826Z" fill="url(#paint4_linear_130_19925)"/>
<path d="M1229.62 188.626V241.026L1184.24 267.226V214.826L1229.62 188.626ZM1230.46 187.168L1183.39 214.34V268.683L1230.46 241.512V187.168Z" fill="url(#paint5_linear_130_19925)"/>
<path d="M1136.88 188.455L1182.55 214.826V267.226L1136.88 240.855V188.455ZM1136.04 186.998V241.341L1183.39 268.684V214.34L1136.04 186.998Z" fill="url(#paint6_linear_130_19925)"/>
<path d="M1324.7 132.735L1277.64 159.907V105.563L1324.7 78.3916V132.735Z" fill="url(#paint7_linear_130_19925)"/>
<path d="M1277.64 159.907L1230.28 132.564V78.2207L1277.64 105.563V159.907Z" fill="url(#paint8_linear_130_19925)"/>
<path d="M1277.64 105.564L1230.28 78.2211L1277.35 51.0493L1324.71 78.3918L1277.64 105.564Z" fill="url(#paint9_linear_130_19925)"/>
<path d="M1277.35 52.0208L1323.02 78.3918L1277.64 104.592L1231.97 78.2211L1277.35 52.0208ZM1277.35 51.0493L1230.28 78.2211L1277.64 105.564L1324.71 78.3918L1277.35 51.0493Z" fill="url(#paint10_linear_130_19925)"/>
<path d="M1323.86 79.8488V132.249L1278.48 158.449V106.049L1323.86 79.8488ZM1324.7 78.3916L1277.64 105.563V159.907L1324.7 132.735V78.3916Z" fill="url(#paint11_linear_130_19925)"/>
<path d="M1231.12 79.6779L1276.8 106.049V158.45L1231.12 132.079V79.6779ZM1230.28 78.2207V132.564L1277.64 159.907V105.563L1230.28 78.2207Z" fill="url(#paint12_linear_130_19925)"/>
<path d="M1375.74 160.798L1421.42 187.169L1376.04 213.369L1330.36 186.998L1375.74 160.798ZM1375.74 159.826L1328.68 186.998L1376.04 214.34L1423.1 187.169L1375.74 159.826Z" fill="url(#paint13_linear_130_19925)"/>
<path d="M1423.1 241.512L1376.04 268.683V214.34L1423.1 187.168V241.512Z" fill="url(#paint14_linear_130_19925)"/>
<path d="M1376.04 268.684L1328.68 241.341V186.998L1376.04 214.34V268.684Z" fill="url(#paint15_linear_130_19925)"/>
<path d="M1376.04 214.34L1328.68 186.998L1375.74 159.826L1423.1 187.169L1376.04 214.34Z" fill="url(#paint16_linear_130_19925)"/>
<path d="M1422.26 188.626V241.026L1376.88 267.226V214.826L1422.26 188.626ZM1423.1 187.168L1376.04 214.34V268.683L1423.1 241.512V187.168Z" fill="url(#paint17_linear_130_19925)"/>
<path d="M1329.52 188.455L1375.2 214.826V267.226L1329.52 240.855V188.455ZM1328.68 186.998V241.341L1376.04 268.684V214.34L1328.68 186.998Z" fill="url(#paint18_linear_130_19925)"/>
<path d="M1517.35 132.735L1470.29 159.907V105.563L1517.35 78.3916V132.735Z" fill="url(#paint19_linear_130_19925)"/>
<path d="M1470.29 159.907L1422.93 132.564V78.2207L1470.29 105.563V159.907Z" fill="url(#paint20_linear_130_19925)"/>
<path d="M1470.29 105.564L1422.93 78.2211L1469.99 51.0493L1517.35 78.3918L1470.29 105.564Z" fill="url(#paint21_linear_130_19925)"/>
<path d="M1469.99 52.0208L1515.67 78.3918L1470.29 104.592L1424.61 78.2211L1469.99 52.0208ZM1469.99 51.0493L1422.93 78.2211L1470.29 105.564L1517.35 78.3918L1469.99 51.0493Z" fill="url(#paint22_linear_130_19925)"/>
<path d="M1516.51 79.8488V132.249L1471.13 158.449V106.049L1516.51 79.8488ZM1517.35 78.3916L1470.29 105.563V159.907L1517.35 132.735V78.3916Z" fill="url(#paint23_linear_130_19925)"/>
<path d="M1423.77 79.6779L1469.44 106.049V158.45L1423.77 132.079V79.6779ZM1422.93 78.2207V132.564L1470.29 159.907V105.563L1422.93 78.2207Z" fill="url(#paint24_linear_130_19925)"/>
<path d="M1618.89 241.779L1571.83 268.95V214.606L1618.89 187.435V241.779Z" fill="url(#paint25_linear_130_19925)"/>
<path d="M1571.83 268.95L1524.47 241.608V187.264L1571.83 214.607V268.95Z" fill="url(#paint26_linear_130_19925)"/>
<path d="M1571.83 214.607L1524.47 187.265L1571.54 160.093L1618.89 187.435L1571.83 214.607Z" fill="url(#paint27_linear_130_19925)"/>
<path d="M1571.54 161.064L1617.21 187.435L1571.83 213.636L1526.16 187.265L1571.54 161.064ZM1571.54 160.093L1524.47 187.265L1571.83 214.607L1618.89 187.435L1571.54 160.093Z" fill="url(#paint28_linear_130_19925)"/>
<path d="M1618.05 188.892V241.293L1572.67 267.493V215.092L1618.05 188.892ZM1618.89 187.435L1571.83 214.606V268.95L1618.89 241.779V187.435Z" fill="url(#paint29_linear_130_19925)"/>
<path d="M1525.31 188.721L1570.99 215.092V267.493L1525.31 241.122V188.721ZM1524.47 187.264V241.608L1571.83 268.95V214.607L1524.47 187.264Z" fill="url(#paint30_linear_130_19925)"/>
</g>
<defs>
<linearGradient id="paint0_linear_130_19925" x1="2071.4" y1="160" x2="900.632" y2="160" gradientUnits="userSpaceOnUse">
<stop stop-color="white" stop-opacity="0.69"/>
<stop offset="1" stop-color="#8557F4" stop-opacity="0.15"/>
</linearGradient>
<linearGradient id="paint1_linear_130_19925" x1="1183.39" y1="241.513" x2="1230.46" y2="241.513" gradientUnits="userSpaceOnUse">
<stop stop-color="#069ECC"/>
<stop offset="1" stop-color="#3ED2FF"/>
</linearGradient>
<linearGradient id="paint2_linear_130_19925" x1="1136.04" y1="214.169" x2="1183.39" y2="214.169" gradientUnits="userSpaceOnUse">
<stop stop-color="#069ECC"/>
<stop offset="1" stop-color="#3ED2FF"/>
</linearGradient>
<linearGradient id="paint3_linear_130_19925" x1="1193.22" y1="146.392" x2="1174.32" y2="223.505" gradientUnits="userSpaceOnUse">
<stop stop-color="#069ECC"/>
<stop offset="1" stop-color="#3ED2FF"/>
</linearGradient>
<linearGradient id="paint4_linear_130_19925" x1="1189.54" y1="161.405" x2="1176.95" y2="212.762" gradientUnits="userSpaceOnUse">
<stop stop-color="#069ECC"/>
<stop offset="1" stop-color="#3ED2FF"/>
</linearGradient>
<linearGradient id="paint5_linear_130_19925" x1="1236.03" y1="257.616" x2="1187.51" y2="208.118" gradientUnits="userSpaceOnUse">
<stop stop-color="#069ECC"/>
<stop offset="1" stop-color="#3ED2FF"/>
</linearGradient>
<linearGradient id="paint6_linear_130_19925" x1="1131.29" y1="255.144" x2="1176.4" y2="211.815" gradientUnits="userSpaceOnUse">
<stop stop-color="#069ECC"/>
<stop offset="1" stop-color="#3ED2FF"/>
</linearGradient>
<linearGradient id="paint7_linear_130_19925" x1="1277.64" y1="132.736" x2="1324.7" y2="132.736" gradientUnits="userSpaceOnUse">
<stop stop-color="#FC940B"/>
<stop offset="1" stop-color="#FFC41F"/>
</linearGradient>
<linearGradient id="paint8_linear_130_19925" x1="1230.28" y1="105.392" x2="1277.64" y2="105.392" gradientUnits="userSpaceOnUse">
<stop stop-color="#FC940B"/>
<stop offset="1" stop-color="#FFC41F"/>
</linearGradient>
<linearGradient id="paint9_linear_130_19925" x1="1287.47" y1="37.615" x2="1268.57" y2="114.728" gradientUnits="userSpaceOnUse">
<stop stop-color="#FC940B"/>
<stop offset="1" stop-color="#FFC41F"/>
</linearGradient>
<linearGradient id="paint10_linear_130_19925" x1="1283.79" y1="52.6281" x2="1271.2" y2="103.985" gradientUnits="userSpaceOnUse">
<stop stop-color="#FC940B"/>
<stop offset="1" stop-color="#FFC41F"/>
</linearGradient>
<linearGradient id="paint11_linear_130_19925" x1="1330.27" y1="148.839" x2="1281.76" y2="99.3407" gradientUnits="userSpaceOnUse">
<stop stop-color="#FC940B"/>
<stop offset="1" stop-color="#FFC41F"/>
</linearGradient>
<linearGradient id="paint12_linear_130_19925" x1="1225.53" y1="146.367" x2="1270.65" y2="103.038" gradientUnits="userSpaceOnUse">
<stop stop-color="#FC940B"/>
<stop offset="1" stop-color="#FFC41F"/>
</linearGradient>
<linearGradient id="paint13_linear_130_19925" x1="1382.19" y1="161.405" x2="1369.6" y2="212.762" gradientUnits="userSpaceOnUse">
<stop stop-color="#13D380"/>
<stop offset="1" stop-color="#33F292"/>
</linearGradient>
<linearGradient id="paint14_linear_130_19925" x1="1376.04" y1="241.513" x2="1423.1" y2="241.513" gradientUnits="userSpaceOnUse">
<stop stop-color="#13D380"/>
<stop offset="1" stop-color="#33F292"/>
</linearGradient>
<linearGradient id="paint15_linear_130_19925" x1="1328.68" y1="214.169" x2="1376.04" y2="214.169" gradientUnits="userSpaceOnUse">
<stop stop-color="#13D380"/>
<stop offset="1" stop-color="#33F292"/>
</linearGradient>
<linearGradient id="paint16_linear_130_19925" x1="1385.87" y1="146.392" x2="1366.96" y2="223.505" gradientUnits="userSpaceOnUse">
<stop stop-color="#13D380"/>
<stop offset="1" stop-color="#33F292"/>
</linearGradient>
<linearGradient id="paint17_linear_130_19925" x1="1428.67" y1="257.616" x2="1380.15" y2="208.118" gradientUnits="userSpaceOnUse">
<stop stop-color="#13D380"/>
<stop offset="1" stop-color="#33F292"/>
</linearGradient>
<linearGradient id="paint18_linear_130_19925" x1="1323.93" y1="255.144" x2="1369.05" y2="211.815" gradientUnits="userSpaceOnUse">
<stop stop-color="#13D380"/>
<stop offset="1" stop-color="#33F292"/>
</linearGradient>
<linearGradient id="paint19_linear_130_19925" x1="1470.29" y1="132.736" x2="1517.35" y2="132.736" gradientUnits="userSpaceOnUse">
<stop stop-color="#BC2E94"/>
<stop offset="1" stop-color="#F44DAC"/>
</linearGradient>
<linearGradient id="paint20_linear_130_19925" x1="1422.93" y1="105.392" x2="1470.29" y2="105.392" gradientUnits="userSpaceOnUse">
<stop stop-color="#BC2E94"/>
<stop offset="1" stop-color="#F44DAC"/>
</linearGradient>
<linearGradient id="paint21_linear_130_19925" x1="1480.11" y1="37.615" x2="1461.21" y2="114.728" gradientUnits="userSpaceOnUse">
<stop stop-color="#BC2E94"/>
<stop offset="1" stop-color="#F44DAC"/>
</linearGradient>
<linearGradient id="paint22_linear_130_19925" x1="1476.43" y1="52.6281" x2="1463.84" y2="103.985" gradientUnits="userSpaceOnUse">
<stop stop-color="#BC2E94"/>
<stop offset="1" stop-color="#F44DAC"/>
</linearGradient>
<linearGradient id="paint23_linear_130_19925" x1="1522.92" y1="148.839" x2="1474.4" y2="99.3407" gradientUnits="userSpaceOnUse">
<stop stop-color="#BC2E94"/>
<stop offset="1" stop-color="#F44DAC"/>
</linearGradient>
<linearGradient id="paint24_linear_130_19925" x1="1418.18" y1="146.367" x2="1463.29" y2="103.038" gradientUnits="userSpaceOnUse">
<stop stop-color="#BC2E94"/>
<stop offset="1" stop-color="#F44DAC"/>
</linearGradient>
<linearGradient id="paint25_linear_130_19925" x1="1571.83" y1="241.779" x2="1618.89" y2="241.779" gradientUnits="userSpaceOnUse">
<stop stop-color="#7066D3"/>
<stop offset="1" stop-color="#40349B"/>
</linearGradient>
<linearGradient id="paint26_linear_130_19925" x1="1524.47" y1="214.436" x2="1571.83" y2="214.436" gradientUnits="userSpaceOnUse">
<stop stop-color="#7066D3"/>
<stop offset="1" stop-color="#40349B"/>
</linearGradient>
<linearGradient id="paint27_linear_130_19925" x1="1581.66" y1="146.658" x2="1562.76" y2="223.772" gradientUnits="userSpaceOnUse">
<stop stop-color="#7066D3"/>
<stop offset="1" stop-color="#40349B"/>
</linearGradient>
<linearGradient id="paint28_linear_130_19925" x1="1577.98" y1="161.672" x2="1565.39" y2="213.028" gradientUnits="userSpaceOnUse">
<stop stop-color="#7066D3"/>
<stop offset="1" stop-color="#40349B"/>
</linearGradient>
<linearGradient id="paint29_linear_130_19925" x1="1624.46" y1="257.883" x2="1575.95" y2="208.384" gradientUnits="userSpaceOnUse">
<stop stop-color="#7066D3"/>
<stop offset="1" stop-color="#40349B"/>
</linearGradient>
<linearGradient id="paint30_linear_130_19925" x1="1519.72" y1="255.411" x2="1564.84" y2="212.082" gradientUnits="userSpaceOnUse">
<stop stop-color="#7066D3"/>
<stop offset="1" stop-color="#40349B"/>
</linearGradient>
<clipPath id="clip0_130_19925">
<rect width="1800" height="320" fill="white"/>
</clipPath>
</defs>
</svg>
